<?xml version="1.0" encoding="utf-8"?>
<!-- Svg Vector Icons : http://www.onlinewebfonts.com/icon -->
<!DOCTYPE svg PUBLIC "-//W3C//DTD SVG 1.1//EN" "http://www.w3.org/Graphics/SVG/1.1/DTD/svg11.dtd">
<svg version="1.1" xmlns="http://www.w3.org/2000/svg" xmlns:xlink="http://www.w3.org/1999/xlink" x="0px" y="0px" viewBox="0 0 1000 1000" enable-background="new 0 0 1000 1000" xml:space="preserve">
<metadata> Svg Vector Icons : http://www.onlinewebfonts.com/icon </metadata>
<g><path d="M63.9,227.3h872.1c30,0,53.9-24,53.9-53.9c0-30-24-53.9-53.9-53.9H63.9c-30,0-53.9,24-53.9,53.9C10,203.3,34,227.3,63.9,227.3z M936.1,446.1H63.9C34,446.1,10,470,10,500s24,53.9,53.9,53.9h872.1c30,0,53.9-24,53.9-53.9S966,446.1,936.1,446.1z M936.1,772.7H63.9c-30,0-53.9,24-53.9,53.9s24,53.9,53.9,53.9h872.1c30,0,53.9-24,53.9-53.9S966,772.7,936.1,772.7z"/></g>
</svg>